<?xml version="1.0" standalone="no"?>
<!DOCTYPE svg PUBLIC "-//W3C//DTD SVG 20010904//EN"
 "http://www.w3.org/TR/2001/REC-SVG-20010904/DTD/svg10.dtd">
<svg version="1.0" xmlns="http://www.w3.org/2000/svg"
 width="559.000000pt" height="559.000000pt" viewBox="0 0 559.000000 559.000000"
 preserveAspectRatio="xMidYMid meet">
<metadata>
Created by potrace 1.14, written by Peter Selinger 2001-2017
</metadata>
<g transform="translate(0.000000,559.000000) scale(0.100000,-0.100000)"
fill="#000000" stroke="none">
<path d="M1301 5472 c-36 -6 -89 -45 -119 -88 l-25 -38 -1 -865 c-1 -476 2
-881 5 -899 10 -48 48 -98 94 -124 l40 -22 1480 0 c814 0 1492 3 1507 7 39 10
96 63 113 105 13 29 15 167 15 911 0 875 0 876 -21 916 -23 42 -36 55 -84 82
-28 16 -137 17 -1505 18 -811 0 -1486 -2 -1499 -3z m669 -696 c36 -14 55 -28
55 -39 0 -9 -56 -73 -124 -142 -112 -114 -122 -128 -116 -153 8 -32 21 -42 55
-42 19 0 54 29 140 116 63 63 123 120 132 125 15 8 22 1 44 -43 38 -74 44
-182 15 -259 -57 -149 -184 -239 -338 -239 -136 0 -274 97 -323 227 -40 108
-22 240 46 331 25 33 36 45 80 80 74 62 233 80 334 38z m974 4 c58 -22 74 -43
54 -68 -7 -9 -58 -61 -114 -116 -55 -56 -106 -111 -113 -124 -20 -38 21 -88
62 -73 10 4 75 63 143 131 l126 124 19 -24 c32 -43 52 -128 47 -205 -8 -126
-82 -233 -204 -295 -42 -21 -62 -25 -144 -24 -111 0 -158 17 -237 88 -164 148
-145 421 38 546 91 62 220 78 323 40z m999 -8 c26 -13 47 -29 47 -38 0 -8 -50
-64 -111 -125 -121 -119 -144 -152 -128 -181 15 -28 50 -39 74 -23 11 7 73 65
138 129 134 131 132 131 168 38 30 -81 24 -197 -15 -275 -117 -230 -429 -265
-588 -64 -57 71 -73 120 -73 222 0 79 3 97 29 148 35 71 118 149 189 176 72
29 201 25 270 -7z"/>
<path d="M1324 3279 c-66 -8 -118 -43 -145 -99 l-23 -45 0 -1415 c-1 -778 3
-1433 7 -1455 11 -53 51 -103 101 -126 39 -18 97 -19 1519 -19 1615 0 1519 -4
1575 57 55 59 52 -22 52 1528 0 1304 -1 1439 -16 1468 -23 46 -44 66 -87 88
-36 19 -80 20 -1485 22 -796 1 -1470 -1 -1498 -4z m1578 -1720 c149 -75 190
-271 83 -397 -40 -47 -104 -81 -166 -88 -115 -12 -208 39 -260 143 -29 57 -31
70 -27 128 15 183 209 295 370 214z"/>
<path d="M4575 3140 c-59 -32 -65 -60 -65 -308 0 -242 6 -276 54 -307 30 -20
95 -22 124 -4 49 31 53 54 53 302 0 128 -4 244 -9 258 -23 59 -102 89 -157 59z"/>
<path d="M873 3120 c-50 -30 -55 -64 -51 -327 3 -228 3 -232 27 -257 56 -59
145 -52 184 14 15 24 17 62 17 267 0 220 -2 240 -20 271 -33 54 -99 68 -157
32z"/>
</g>
</svg>
